<svg width="27" height="27" viewBox="0 0 27 27" fill="none" xmlns="http://www.w3.org/2000/svg">
<path d="M13.4101 16.1667L3.76227 26.1165C3.4013 26.4888 2.93751 26.6793 2.37091 26.688C1.80431 26.6968 1.33488 26.5206 0.962604 26.1597C0.590331 25.7987 0.399829 25.3349 0.391097 24.7683C0.382364 24.2017 0.558484 23.7323 0.919457 23.36L10.5673 13.4101L0.617426 3.76231C0.245152 3.40134 0.0546503 2.93756 0.0459182 2.37096C0.037186 1.80436 0.213306 1.33492 0.574278 0.962647C0.935251 0.590374 1.39904 0.399872 1.96564 0.391139C2.53224 0.382407 3.00167 0.558527 3.37395 0.9195L13.3238 10.5673L22.9716 0.617469C23.3326 0.245195 23.7964 0.0546931 24.363 0.0459609C24.9296 0.0372287 25.399 0.213348 25.7713 0.574321C26.1436 0.935294 26.3341 1.39908 26.3428 1.96568C26.3515 2.53228 26.1754 3.00172 25.8144 3.37399L16.1666 13.3238L26.1165 22.9717C26.4887 23.3326 26.6792 23.7964 26.688 24.363C26.6967 24.9296 26.5206 25.3991 26.1596 25.7713C25.7986 26.1436 25.3349 26.3341 24.7683 26.3428C24.2017 26.3516 23.7322 26.1754 23.3599 25.8145L13.4101 16.1667Z" fill="#616161"/>
</svg>
