<svg width="16" height="12" viewBox="0 0 16 12" fill="none" xmlns="http://www.w3.org/2000/svg">
<path d="M1.87413 12C1.47201 12 1.12764 11.853 0.841041 11.559C0.554437 11.265 0.411379 10.912 0.411866 10.5V1.5C0.411866 1.0875 0.555168 0.734251 0.841772 0.440251C1.12838 0.146251 1.4725 -0.000498727 1.87413 1.27335e-06H13.5722C13.9744 1.27335e-06 14.3187 0.147001 14.6053 0.441001C14.8919 0.735001 15.035 1.088 15.0345 1.5V10.5C15.0345 10.9125 14.8912 11.2658 14.6046 11.5598C14.318 11.8538 13.9739 12.0005 13.5722 12H1.87413ZM7.72319 6.61875C7.78412 6.61875 7.84821 6.60925 7.91548 6.59025C7.98274 6.57125 8.04659 6.54325 8.10703 6.50625L13.2798 3.1875C13.3773 3.125 13.4504 3.04675 13.4991 2.95275C13.5479 2.85875 13.5722 2.75575 13.5722 2.64375C13.5722 2.39375 13.4687 2.20625 13.2615 2.08125C13.0544 1.95625 12.8411 1.9625 12.6218 2.1L7.72319 5.25L2.8246 2.1C2.60526 1.9625 2.39202 1.9595 2.18486 2.091C1.97771 2.2225 1.87413 2.40675 1.87413 2.64375C1.87413 2.76875 1.8985 2.87825 1.94724 2.97225C1.99599 3.06625 2.0691 3.138 2.16658 3.1875L7.33934 6.50625C7.40027 6.54375 7.46437 6.572 7.53163 6.591C7.5989 6.61 7.66275 6.61925 7.72319 6.61875Z" fill="#0B5555"/>
</svg>
