<svg width="14" height="14" viewBox="0 0 14 14" fill="none" xmlns="http://www.w3.org/2000/svg">
<path d="M1.0375 13.75C0.8125 13.75 0.625 13.675 0.475 13.525C0.325 13.375 0.25 13.1875 0.25 12.9625V9.925C0.25 9.75 0.30625 9.59675 0.41875 9.46525C0.53125 9.33375 0.675 9.2495 0.85 9.2125L3.4375 8.6875C3.6125 8.6625 3.79075 8.67825 3.97225 8.73475C4.15375 8.79125 4.3005 8.8755 4.4125 8.9875L6.175 10.75C7.125 10.175 7.99375 9.49375 8.78125 8.70625C9.56875 7.91875 10.225 7.075 10.75 6.175L8.95 4.3375C8.8375 4.225 8.7655 4.09675 8.734 3.95275C8.7025 3.80875 8.6995 3.6495 8.725 3.475L9.2125 0.85C9.2375 0.675 9.31875 0.53125 9.45625 0.41875C9.59375 0.30625 9.75 0.25 9.925 0.25H12.9625C13.1875 0.25 13.375 0.325 13.525 0.475C13.675 0.625 13.75 0.8125 13.75 1.0375C13.75 2.65 13.3905 4.222 12.6715 5.7535C11.9525 7.285 11.0025 8.64125 9.8215 9.82225C8.6405 11.0032 7.28425 11.9532 5.75275 12.6722C4.22125 13.3912 2.6495 13.7505 1.0375 13.75Z" fill="#0B5555"/>
</svg>
